<svg xmlns="http://www.w3.org/2000/svg" width="40" height="40" viewBox="0 0 40 40">
  <g fill="none" stroke="#FFFFFF" stroke-width="2.6" stroke-linecap="round" stroke-linejoin="round">
    <path d="M6 13V8.5A2.5 2.5 0 0 1 8.5 6H13M27 6h4.5A2.5 2.5 0 0 1 34 8.5V13M34 27v4.5a2.5 2.5 0 0 1-2.5 2.5H27M13 34H8.5A2.5 2.5 0 0 1 6 31.5V27"/>
    <path d="M15 25c1.6 1.7 3.3 2.5 5 2.5s3.4-.8 5-2.5"/>
  </g>
  <circle cx="15.5" cy="17.5" r="1.8" fill="#FFFFFF"/>
  <circle cx="24.5" cy="17.5" r="1.8" fill="#FFFFFF"/>
</svg>
